<svg version="1.0" xmlns="http://www.w3.org/2000/svg" width="682.667" height="682.667" viewBox="0 0 512 512"><path d="M234 101.6c-24.4 4.4-47.1 13.4-63.7 25.2-31.2 22.3-52.7 49.8-62.7 80.7-6.2 18.9-8.7 41.4-6.8 61.3 3.6 38.8 17.1 68.2 44.1 96.6 28.2 29.5 62.2 45 103.7 47.2 13 .7 20.6 0 41.7-4.2 23.1-4.6 38.1-10.2 45.7-17 5-4.5 6.4-8.1 5.8-15.1-.4-5.1-.9-6.1-4.3-9-4.2-3.6-11.3-5.3-15.5-3.5-28.3 11.7-37.7 14.5-54.7 16.2-25.2 2.6-56-4.5-75.5-17.3-24.6-16.3-42.5-40-54.4-72.4L134 281l134.4-.2 134.5-.3 2.8-2.1c5.1-3.8 6.7-7.9 7.1-18.3 1.2-27.1-7.4-60-21.6-82-24.1-37.6-55.1-62.2-91-72.1-20.9-5.8-48.4-7.6-66.2-4.4zm54.5 34.3c16 4.3 38 16.8 53.5 30.3 12.1 10.5 27.1 35.5 33.3 55.3 2.4 7.6 4.7 20.5 4.7 26.1v2.4H131.8l.5-2.3c.3-1.2 1.1-5.1 1.7-8.7 2.3-12.9 7.6-29.2 12.9-39.7 4-8.1 14-21.3 22.9-30.5 17.6-18.2 36.3-28.7 60.2-33.9 12.7-2.7 47.1-2.2 58.5 1z"/></svg>